<?xml version="1.0" encoding="UTF-8"?>
<svg id="Layer_2" data-name="Layer 2" xmlns="http://www.w3.org/2000/svg" viewBox="0 0 23.74 23.74">
  <defs>
    <style>
      .cls-1 {
        fill: #030305;
      }

      .cls-1, .cls-2, .cls-3, .cls-4, .cls-5, .cls-6, .cls-7, .cls-8, .cls-9 {
        fill-rule: evenodd;
      }

      .cls-2 {
        fill: #211611;
      }

      .cls-3 {
        fill: #954220;
      }

      .cls-4 {
        fill: #fff;
      }

      .cls-5 {
        fill: #d0d3d4;
      }

      .cls-6 {
        fill: #020202;
      }

      .cls-7, .cls-10 {
        fill: #010101;
      }

      .cls-8 {
        fill: #f9a363;
      }

      .cls-9 {
        fill: #f06a22;
      }
    </style>
  </defs>
  <g id="Layer_1-2" data-name="Layer 1">
    <g>
      <path class="cls-9" d="M10.66,6.45h0s-.02-.03-.03-.04c0-.02-.02-.03-.03-.05.01.57.33.96.52,1.36l-.95.11c-.45-.58-.63-1.03-.4-1.94.16-.66.49-1.21.84-1.59.08-.08.54-.49.71-.51.44-.06-.04.66-.08.74-.31.6-.37,1.37-.36,2.13-.05-.03-.09-.06-.13-.09,0,0-.01-.01-.02-.02,0,0-.01-.01-.02-.02-.01-.01-.02-.02-.03-.04-.01-.01-.02-.03-.03-.04Z"/>
      <path class="cls-9" d="M16.83,6.67s0,.08,0,.12h0s0,.08,0,.11c0,0,0,.01,0,.01,0,.03,0,.06,0,.1,0,.05,0,.09-.01.14,0,.04,0,.07-.01.11,0,.02,0,.05-.01.07,0,.01,0,.03,0,.04,0,.01,0,.03,0,.04,0,.03,0,.06-.02.09,0,.04-.02.08-.02.12,0,.04-.02.08-.03.12,0,.04-.02.08-.03.12-.02.08-.04.16-.06.23-.01.04-.02.08-.04.12-.01.04-.02.08-.04.12-.01.03-.02.07-.04.1-.02.04-.03.09-.05.13-.03.08-.06.15-.09.23-.02.04-.03.07-.05.11-.02.04-.03.07-.05.11s-.03.07-.05.11c-.03.07-.07.14-.1.21,0,0,0,0,0,0-.04.07-.07.14-.11.21,0,.02-.02.03-.03.05-.02.03-.03.06-.05.09-.02.03-.03.06-.05.09h0c-.09.16-.19.33-.29.48l-.15.17-.08.1-.27-.45c.52-.78.77-.98,1.02-2.19.34-1.67.1-1.81.21-2.98.25.25.45.95.49,1.37.02.14.02.28.02.42Z"/>
      <path class="cls-9" d="M17.22,8.16c-.12.17-.48.66-.63.76.19-.53.45-1.11.54-1.71.26-1.78-1.04-3.02-1.49-4.14l-.26-.74c0-.09,0-.06.02-.11.51-.13,2.15,1.94,2.51,2.89.47,1.24,0,2.12-.69,3.05Z"/>
      <path class="cls-9" d="M23.74,11.87c0,6.56-5.31,11.87-11.87,11.87S0,18.42,0,11.87,5.31,0,11.87,0s11.87,5.31,11.87,11.87Z"/>
      <path class="cls-5" d="M10.66,6.45h0s-.02-.03-.03-.04c0-.02-.02-.03-.03-.05.01.57.33.96.52,1.36l-.95.11c-.45-.58-.63-1.03-.4-1.94.16-.66.49-1.21.84-1.59.08-.08.54-.49.71-.51.44-.06-.04.66-.08.74-.31.6-.37,1.37-.36,2.13-.05-.03-.09-.06-.13-.09,0,0-.01-.01-.02-.02,0,0-.01-.01-.02-.02-.01-.01-.02-.02-.03-.04-.01-.01-.02-.03-.03-.04Z"/>
      <path class="cls-5" d="M16.83,6.67s0,.08,0,.12h0s0,.08,0,.11c0,0,0,.01,0,.01,0,.03,0,.06,0,.1,0,.05,0,.09-.01.14,0,.04,0,.07-.01.11,0,.02,0,.05-.01.07,0,.01,0,.03,0,.04,0,.01,0,.03,0,.04,0,.03,0,.06-.02.09,0,.04-.02.08-.02.12,0,.04-.02.08-.03.12,0,.04-.02.08-.03.12-.02.08-.04.16-.06.23-.01.04-.02.08-.04.12-.01.04-.02.08-.04.12-.01.03-.02.07-.04.1-.02.04-.03.09-.05.13-.03.08-.06.15-.09.23-.02.04-.03.07-.05.11-.02.04-.03.07-.05.11s-.03.07-.05.11c-.03.07-.07.14-.1.21,0,0,0,0,0,0-.04.07-.07.14-.11.21,0,.02-.02.03-.03.05-.02.03-.03.06-.05.09-.02.03-.03.06-.05.09h0c-.09.16-.19.33-.29.48l-.15.17-.08.1-.27-.45c.52-.78.77-.98,1.02-2.19.34-1.67.1-1.81.21-2.98.25.25.45.95.49,1.37.02.14.02.28.02.42Z"/>
      <path class="cls-5" d="M17.22,8.16c-.12.17-.48.66-.63.76.19-.53.45-1.11.54-1.71.26-1.78-1.04-3.02-1.49-4.14l-.26-.74c0-.09,0-.06.02-.11.51-.13,2.15,1.94,2.51,2.89.47,1.24,0,2.12-.69,3.05Z"/>
      <path class="cls-5" d="M22.79,11.87c0,4.09-2.24,7.65-5.57,9.52-.32.18-.64.34-.97.49-.23.1-.47.2-.71.28-.75.27-1.54.46-2.36.55-.21.03-.43.05-.65.06-.09,0-.19.01-.28.01-.13,0-.26,0-.39,0-1.07,0-2.11-.15-3.09-.44-.16-.05-.31-.1-.47-.15-.16-.06-.33-.12-.49-.18-.12-.05-.24-.1-.35-.15-3.85-1.69-6.53-5.53-6.53-10C.95,5.84,5.84.94,11.87.94s10.92,4.89,10.92,10.92Z"/>
      <path class="cls-3" d="M16.16,11.01c-.09-.08-.15-.14-.19-.18-.12-.12-.13-.12-.26-.19-.02,0-.11-.05-.11-.05l-.03.03s-.07.06-.09.08l-.03.02v.51c-.12-.43-.29-.94-.5-1.28.01,0,.02,0,.03,0,0,0,.01,0,.02,0,0,0,.01,0,.02,0,.02,0,.04,0,.07-.02h.03s.01-.03.01-.03c.12-.25.13-.29.05-.39-.06-.07-.18-.22-.29-.84-.04-.2-.08-.39-.12-.55v-.03c-.03-.07-.04-.13-.07-.2h0s-.15-.25-.15-.25l-.12.04.05.97s-.03-.04-.05-.06c-.03-.04-.05-.07-.09-.12l-.21-.26s-.01-.01-.02-.02v-.02s-.04-.02-.04-.02c0,0-.02-.01-.06-.03l-.13-.08.03.14c.02.11.06.2.09.28.03.06.05.12.06.19-.12-.05-.22-.11-.33-.16-.42-.21-.79-.39-1.49-.47-.15-.02-.32-.03-.51-.03-.57,0-1.37.09-1.74.36l-.14.1.17.02c.13.01.28.02.44.02.33,0,.69.02.93.1l-.4.12.04.07s.02.03.04.04c.03.06.14.09.25.11.02,0,.03,0,.04,0,.11.03.23.07.34.11.17.06.25.11.33.16l.06.04h0c.06.01.12.04.18.06.02,0,.03.01.05.02.05.03.09.05.13.07.02.02.05.03.07.05.02.02.05.03.06.05,0,0,0,0,0,0,0,0,0,0,0,0l.02.02h.02s.03,0,.05.01c.02,0,.03,0,.04.01h0s.07.02.1.03c.01,0,.02,0,.03.01h.02c.09.03.17.07.26.11.07.03.14.07.21.1.03.02.07.04.1.06,1.16.67,1.67,1.59,1.56,2.82-.04.41-.12.77-.19.96-.13.36-.23.38-.53.44-.05,0-.1.02-.16.03h-.02s-.07.02-.11.03c-.04,0-.07.02-.11.03-.03,0-.07.02-.1.03-.06.01-.11.03-.17.04-.03,0-.07.02-.1.03h-.04c-.07.03-.13.05-.2.07-.11.03-.22.07-.32.1h-.01c-.05.02-.1.04-.15.05-.11.04-.23.08-.34.12-.05.02-.11.04-.15.06h0c-.1.04-.2.09-.31.13,0,0,0,0-.02,0-.05.02-.09.04-.14.07-.05.02-.1.05-.15.07-.05.03-.1.05-.15.08l-.03.02v.04s0,.02,0,.04v.03c-.01.13-.04.27-.08.38,0,.02-.01.03-.02.04-.01.03-.03.06-.04.09,0,0-.01.02-.02.03l-.2.3h.11s0,0,0,0c-.26.26-.52.53-.78.86-.63.76-1.19,1.67-1.65,2.4-.28.46-.31.58-.26.65.01.02.04.05.09.05s.15-.02.42-.21c.1-.07.21-.16.32-.24.08-.06.15-.12.21-.16-.13.18-.39.49-.6.72-.11.12-.2.21-.28.28-.08.08-.14.14-.18.19-.11.13-.1.19-.08.22,0,.02.03.05.09.05.01,0,.03,0,.05,0,.05-.01.12-.05.2-.08.08-.04.17-.08.23-.1-.01.02-.04.05-.08.08-.07.06-.18.14-.3.22-.17.12-.36.25-.5.38-.19.18-.3.36-.36.6,0,.02-.01.04-.01.06,0,.02,0,.04-.01.06h0v.07l.04.02c.16.06.32.12.49.18h.04s.03-.02.03-.02c.03-.03.07-.07.1-.1.04-.04.07-.07.11-.11.08-.08.15-.17.22-.25.07-.08.15-.17.2-.23-.03.11-.09.28-.14.42h0c-.02.08-.05.15-.08.23-.01.04-.03.07-.04.11h0s0,.02,0,.02v.06h.05c1.01.31,2.05.46,3.11.46.12,0,.25,0,.39,0,.09,0,.19,0,.28-.01h.06c.21-.02.4-.04.58-.06,0,0,.02,0,.02,0,.95-.25,1.74-.43,2.35-.55v-.06s0,.06,0,.06h0s0,0,0,0c.23-.08.47-.18.71-.28l.04-.02v-.07s0,0,0,0c0-.04-.01-.07-.02-.11-.16-1.1.12-2.52.42-4.03.51-2.57,1.03-5.22-.55-6.69Z"/>
      <path class="cls-7" d="M9.05,21.43c-.06,0-.29.3-.53.56-.03.04-.07.07-.1.11-.03.04-.07.07-.1.1,0,0,0,0,0,0,.15.05.31.1.47.15,0,0,0,0,0,0,.02-.04.03-.08.04-.12.03-.07.05-.14.08-.21.11-.32.21-.59.15-.59ZM15.54,22.16c-.67.13-1.5.33-2.36.55,0,0-.01,0-.02,0,.83-.1,1.63-.29,2.39-.56,0,0,0,0-.01,0ZM17.2,21.25c-.31.18-.64.34-.97.49,0,.05.01.09.02.13,0,0,0,0,0,0,.33-.15.66-.31.97-.49h0s-.02-.09-.02-.14ZM15.32,9.89c.02.22.06.39.11.51l.15-.17c.1-.15.19-.32.29-.48-.21-.27-.71-.13-.55.14ZM12.86,9.69c-.04-.08-.1-.15-.15-.21-.02-.02-.04-.04-.06-.06,0,0,0,0,0,0-.01,0-.03,0-.04,0-.26-.04-.54-.05-.82-.04.02.02.04.04.05.05.07,0,.28.04.45.05.08.04.16.09.22.15.01,0,.02.02.03.03.14.14.24.36.24.73,0,.33-.07.78-.18,1.26-.15.66-.37,1.36-.54,1.9-.27.8-.41.78-.52,1.03h0s-.04.08-.05.11c-.02.04-.03.07-.04.1,0,.01,0,.02-.01.03-.06.15-.05.19-.04.23l.09-.02s-.04.09-.05.1c0,0,0,0,0,0,0,.04-.05.22-.22.51-.07.11-.33.44-.36.48-.18.19-.36.39-.54.62-.15.2-.31.43-.45.66-.07.12-.15.24-.22.37-.12.16-.24.34-.38.54-.29.43-.62.94-.8,1.26-.19.32-.24.45-.24.56s.05.22.05.3-.05.14-.18.32c-.13.18-.34.5-.47.74-.05.1-.09.18-.12.27-.01.04-.03.08-.04.13,0,0,0,0,0,0,.12.05.23.1.35.15,0,0,0,0,0,0,0-.02,0-.05.01-.07,0-.02,0-.04.01-.06.05-.19.13-.38.34-.57.23-.22.61-.45.79-.6.18-.15.15-.22.03-.19-.12.03-.33.16-.43.18-.1.02-.07-.05.01-.16.09-.11.24-.24.46-.48.22-.23.49-.57.62-.75.13-.18.11-.21-.03-.12-.14.09-.39.3-.61.46s-.38.24-.42.18c-.04-.06.07-.26.26-.58.51-.82,1.04-1.66,1.64-2.39.25-.33.51-.6.77-.86.04-.04.08-.08.11-.12h-.14s.14-.2.14-.2c0-.01.01-.02.02-.03.02-.03.03-.06.05-.09,0-.02.01-.03.02-.05.05-.13.08-.28.08-.4,0-.01,0-.02,0-.03,0-.01,0-.03,0-.04h0s0-.04,0-.05l.06-.02s0-.02.08-.21c.02-.04.03-.07.04-.1h0s.02-.05.03-.07c0,0,0-.01,0-.01.1-.17.24-.25.48-.97.18-.54.4-1.26.55-1.92.11-.49.19-.96.19-1.32,0-.3-.06-.52-.15-.69Z"/>
      <path class="cls-2" d="M17.22,8.16c-.12.17-.48.66-.63.76.19-.53.45-1.11.54-1.71.26-1.78-1.04-3.02-1.49-4.14l-.26-.74c0-.09,0-.06.02-.11.51-.13,2.15,1.94,2.51,2.89.47,1.24,0,2.12-.69,3.05Z"/>
      <path class="cls-2" d="M10.66,6.45h0s-.02-.03-.03-.04c0-.02-.02-.03-.03-.05.01.57.33.96.52,1.36l-.95.11c-.45-.58-.63-1.03-.4-1.94.16-.66.49-1.21.84-1.59.08-.08.54-.49.71-.51.44-.06-.04.66-.08.74-.31.6-.37,1.37-.36,2.13-.05-.03-.09-.06-.13-.09,0,0-.01-.01-.02-.02,0,0-.01-.01-.02-.02-.01-.01-.02-.02-.03-.04-.01-.01-.02-.03-.03-.04Z"/>
      <path class="cls-2" d="M16.83,6.67s0,.08,0,.12h0s0,.08,0,.11c0,0,0,.01,0,.01,0,.03,0,.06,0,.1,0,.05,0,.09-.01.14,0,.04,0,.07-.01.11,0,.02,0,.05-.01.07,0,.01,0,.03,0,.04,0,.01,0,.03,0,.04,0,.03,0,.06-.02.09,0,.04-.02.08-.02.12,0,.04-.02.08-.03.12,0,.04-.02.08-.03.12-.02.08-.04.16-.06.23-.01.04-.02.08-.04.12-.01.04-.02.08-.04.12-.01.03-.02.07-.04.1-.02.04-.03.09-.05.13-.03.08-.06.15-.09.23-.02.04-.03.07-.05.11-.02.04-.03.07-.05.11s-.03.07-.05.11c-.03.07-.07.14-.1.21,0,0,0,0,0,0-.04.07-.07.14-.11.21,0,.02-.02.03-.03.05-.02.03-.03.06-.05.09-.02.03-.03.06-.05.09h0c-.21-.27-.71-.13-.55.14.02.22.06.39.11.51l-.08.1-.27-.45c.52-.78.77-.98,1.02-2.19.34-1.67.1-1.81.21-2.98.25.25.45.95.49,1.37.02.14.02.28.02.42Z"/>
      <path class="cls-8" d="M8.56,14.61c.7,2.36-1.69,3.18-3.69,2.61v.06c-.01.06.23.11.23.15-.23.04-.45.16-.36-.22.01-.04.06-.07.06-.13-.06-.02-.19-.08-.25-.06-.07.01-.14.03-.19.06-.05.03-.15.14-.19.19-.27.36-.07.86.38.96.47.1,1.62,0,2.17,0,.08,0,.51,0,.83.06-.06,0-.22,0-.32,0,.03.02.1.11.13.13.06.03.05.05.13.06.09.02.28.06.38.06.09,0,.23.02.32,0,.46-.11.75-.79.92-1.2.27-.63.6-1.07,1.08-1.56.63-.63,1.51-1.1,2.33-1.45.77-.33,1.4-.44,1.85-.76,1.06-.77.55-2.53-.25-3.31-.85-.83-2.23-.86-3.63-.57-.26.05-1.39.27-1.59.32-.91.23-1.76.54-2.68.76-.95.23-1.96.43-2.23.96-.17.35-.33.77.13,1.34-.26.02-.25.09-.51.13-.27.04-.53.21-.7.7-.02.08-.06.1-.06.19,0,.1-.01.29,0,.38.01.09.1.3.13.38.19.44.74.27,1.02.06-.03-.19-.14-.56-.1-.81.08.13.46,1.83,2.2,1.57,1.61-.24,1.8-.6,2.42-1.02-.01.02.08-.08.06-.06Z"/>
      <path class="cls-7" d="M8.71,14.22c.11,0,.21,0,.29.02.08.02.15.04.21.07.06.03.11.07.15.11.04.05.07.1.09.15.02.04.03.09.03.13.01.11.01.29-.07.37,0-.23-.17-.57-.45-.61-.06-.01-.14-.02-.23-.01-.1,0-.22.02-.35.04-.13.02-.28.05-.42.07.32-.29.58-.31.76-.35h0ZM4.6,12.95c-.06-.14-.05-.48,0-.68.05-.2.12-.34.24-.38.12-.03.3.04.43.17s.2.31.25.45c.05.14.06.26.03.34-.04.09-.13.16-.25.19-.14.04-.65.06-.71-.1h0ZM5.75,11.78c.06.05.2.1.26.16.06.06.11.11.14.17.04.06.07.13.08.19h0c.01.06.01.13,0,.19,0,.05-.03.11-.05.16-.02.06-.05.11-.08.15-.03.04-.06.07-.09.09-.03.02-.11.07-.13.08-.01-.02.17-.3.16-.6,0-.25-.25-.41-.3-.59Z"/>
      <path class="cls-1" d="M3.91,12.99h0s0,0,0,0Z"/>
      <path class="cls-1" d="M3.62,12.67c-.03.05-.04.09-.05.11,0,.04,0,.07,0,.1,0,.03.01.05.03.06,0,0,.02.01.03.02h0s.06.01.09.02c.04,0,.08.01.11.01-.02-.03-.04-.06-.07-.09-.02-.03-.05-.06-.08-.1-.03-.04-.05-.08-.08-.13Z"/>
      <path class="cls-4" d="M6.16,17.24c-.42,0-.83-.06-1.19-.17h-.02s0-.03,0-.03c0-.03,0-.07,0-.1,0-.27-.13-.49-.26-.72-.03-.05-.06-.11-.09-.16-.06-.11-.13-.24-.18-.37l-.04-.1.09.06c.29.19.69.29,1.16.29,1.11,0,2.38-.56,2.9-1.28l.04-.05.02.06c.21.67.16,1.24-.17,1.68-.41.56-1.25.89-2.26.89,0,0,0,0,0,0Z"/>
      <path class="cls-6" d="M6.2,16.59c.3-.01,1.12-.05,1.57-.28.45-.23.54-.44.93-.72-.08.17.02.15-.05.25-.42.56-1.37.89-2.45.74Z"/>
      <path class="cls-4" d="M10.49,12.59c-.63,0-1.07-.38-1.21-1.04-.03-.13-.04-.27-.04-.41,0-.21.03-.36.04-.42,0,0,0,0,.03-.1l.04-.11h.04s.07,0,.1,0c.13,0,.26,0,.4,0s.26,0,.37,0c.23,0,.43.02.6.04.19.03.35.06.48.11.13.04.23.1.31.18.07.07.13.15.18.25.05.1.08.2.1.31.02.11.02.21,0,.3-.09.47-.77.9-1.44.9h0Z"/>
      <path class="cls-8" d="M17.97,5.09c-.35-.92-1.92-2.93-2.52-2.93-.02,0-.05,0-.07,0h-.03s-.01.03-.01.03c0,.01,0,.02-.01.02-.02.03-.02.05-.02.11v.02l.27.75c.13.33.34.67.56,1.03.52.86,1.11,1.84.93,3.07-.07.47-.24.92-.41,1.36-.04.12-.09.23-.13.34l-.07.19.17-.12c.13-.09.38-.43.62-.75l.02-.03c.66-.88,1.2-1.79.7-3.11Z"/>
      <path class="cls-4" d="M10.66,6.45h0s-.02-.03-.03-.04c0-.02-.02-.03-.03-.05.01.57.33.96.52,1.36l-.95.11c-.45-.58-.63-1.03-.4-1.94.16-.66.49-1.21.84-1.59.08-.08.54-.49.71-.51.44-.06-.04.66-.08.74-.31.6-.37,1.37-.36,2.13-.05-.03-.09-.06-.13-.09,0,0-.01-.01-.02-.02,0,0-.01-.01-.02-.02-.01-.01-.02-.02-.03-.04-.01-.01-.02-.03-.03-.04Z"/>
      <path class="cls-3" d="M16.83,6.67s0,.08,0,.12h0s0,.08,0,.11c0,0,0,.01,0,.01,0,.03,0,.06,0,.1,0,.05,0,.09-.01.14,0,.04,0,.07-.01.11,0,.02,0,.05-.01.07,0,.01,0,.03,0,.04,0,.01,0,.03,0,.04,0,.03,0,.06-.02.09,0,.04-.02.08-.02.12,0,.04-.02.08-.03.12,0,.04-.02.08-.03.12-.02.08-.04.16-.06.23-.01.04-.02.08-.04.12-.01.04-.02.08-.04.12-.01.03-.02.07-.04.1-.02.04-.03.09-.05.13-.03.08-.06.15-.09.23-.02.04-.03.07-.05.11-.02.04-.03.07-.05.11s-.03.07-.05.11c-.03.07-.07.14-.1.21,0,0,0,0,0,0-.04.07-.07.14-.11.21,0,.02-.02.03-.03.05-.02.03-.03.06-.05.09-.02.03-.03.06-.05.09-.09.17-.19.33-.29.48l-.15.17-.08.1-.27-.45c.52-.78.77-.98,1.02-2.19.34-1.67.1-1.81.21-2.98.25.25.45.95.49,1.37.02.14.02.28.02.42Z"/>
      <path class="cls-7" d="M11.19,10.59c.24,0,.44.34.44.76s-.2.76-.44.76-.44-.34-.44-.76.2-.76.44-.76Z"/>
      <path class="cls-1" d="M12.25,22.79c.09-.36.24-.87.42-1.43.21-.66.46-1.38.67-2.01.21-.63.38-1.16.47-1.43.09-.26.09-.25.08-.09,0,.16-.02.48-.02.65,0,.17,0,.21.02.08.03-.13.09-.42.15-.85.06-.43.13-1,.12-1.45,0-.45-.08-.78-.06-.8.02-.02.15.28.2.75.05.46.03,1.09-.06,1.66-.09.56-.25,1.06-.34,1.27-.09.21-.11.13-.13.01-.02-.12-.04-.27-.08-.19-.04.07-.1.37-.28.95-.18.58-.48,1.44-.65,1.99-.14.46-.19.69-.23.88-.09,0-.19,0-.28.01Z"/>
      <path class="cls-3" d="M10.08,7.91c-.47-.61-.66-1.09-.43-2.05.16-.63.46-1.21.87-1.65.04-.04.55-.52.78-.55.02,0,.04,0,.06,0,.14,0,.2.07.23.12.1.18-.04.47-.22.77-.01.02-.02.03-.02.04-.31.6-.35,1.38-.35,2.07v.22s-.19-.11-.19-.11c0,0-.01,0-.02-.01.07.23.18.43.29.62.05.09.11.19.15.28l.08.16-1.2.14-.04-.06Z"/>
      <path class="cls-10" d="M11.87.82C5.78.82.82,5.78.82,11.87s4.96,11.05,11.05,11.05,11.05-4.96,11.05-11.05S17.96.82,11.87.82ZM16.23,21.74c-1.13.5-2.37.82-3.67.9-.09,0-.18.01-.27.01-.14,0-.28,0-.42,0-1.06,0-2.08-.15-3.05-.44-.14-.04-.27-.08-.41-.13-.19-.06-.38-.13-.56-.21-.11-.05-.23-.09-.34-.14-3.79-1.68-6.44-5.47-6.44-9.88C1.07,5.92,5.92,1.07,11.87,1.07s10.8,4.84,10.8,10.8c0,4.01-2.2,7.52-5.46,9.38-.31.18-.64.34-.97.49Z"/>
      <path class="cls-10" d="M18.47,6.68c.49-1.73-.8-3.23-2.03-4.11-2.02-1.44-1.19,0-.77,1.28.2.6.25,1.19.3,1.84.06.68.01,1.41-.11,2.04-.12.64-.33,1.05-.51,1.62-.35-.11-.33-.2-.38-.59-.09-.72-.4-1.42-.67-2.08l-.07,1.39c-.16-.07-.32-.23-.47-.34-.16-.12-.26-.2-.43-.31.16.27.35.51.48.85-1.09-.41-1.21-.42-2.4-.55h-.02s0,0,0,0c0,0,0-.01,0-.02l-.02-.03v-.02s-.01,0-.01,0c-.02-.04-.04-.08-.05-.08-.13-.23-.14-.45-.15-.74,0-.5-.04-.67.11-1.13.14-.43.7-1.57.49-1.97-.3-.47-1.11.2-1.34.41-.31.28-.63.72-.9,1.12-.49.73-.69,1.4-.05,2.17.09.11.17.18.25.26l.22.27c-.48.19-.87.6-1.11.94.51-.11,1.09-.3,1.7-.24-.21.13-.21.04-.29.25.43.02.62,0,1,.16.18.08.39.18.54.33.28,0,.56,0,.82.04.01,0,.03,0,.04,0,0,0,0,0,0,0-.02-.02-.05-.04-.07-.06-.02-.02-.05-.03-.08-.05-.04-.03-.09-.05-.13-.07-.02,0-.03-.02-.05-.02-.08-.03-.15-.06-.23-.1h0c-.08-.05-.17-.1-.34-.17-.11-.04-.23-.08-.34-.11-.05-.01-.24-.04-.26-.09,0-.02-.02-.01-.03-.03l.48-.14c-.35-.22-1.09-.16-1.54-.2.44-.31,1.56-.4,2.2-.32.91.11,1.24.38,1.91.67-.01-.21-.12-.34-.17-.58.12.07.02,0,.1.08l.21.26c.1.12.15.21.26.32l-.06-1.15.14.24c.03.08.05.15.07.23.05.19.09.37.12.55.22,1.23.49.67.25,1.2-.07.02-.05,0-.13.01,0,0-.02,0-.03,0h-.06c.33.51.58,1.45.65,1.88l.02-1.01s.06-.05.1-.08c.27.13.14.05.51.39,2.48,2.3-.32,7.69.12,10.68.33-.15.66-.31.97-.49-.51-3.03.63-5.41.17-8.18-.07-.4-.17-.76-.28-1.05-.29-.74-.51-.65-1.1-1.77.14-.16.28-.31.34-.37.82-.89,1.73-1.82,2.13-3.2ZM10.18,7.83c-.45-.58-.63-1.03-.4-1.94.16-.66.49-1.21.84-1.59.08-.08.54-.49.71-.51.44-.06-.04.66-.08.74-.31.6-.37,1.37-.36,2.13-.05-.03-.09-.06-.13-.09,0,0-.01-.01-.02-.02,0,0-.01-.01-.02-.02-.01-.01-.02-.02-.03-.04-.01-.01-.02-.03-.03-.04h0s-.02-.03-.03-.04c0-.02-.02-.03-.03-.05.01.57.33.96.52,1.36l-.95.11ZM15.64,3.07l-.26-.74c0-.09,0-.06.02-.11.51-.13,2.15,1.94,2.51,2.89.47,1.24,0,2.12-.69,3.05-.12.17-.48.66-.63.76.19-.53.45-1.11.54-1.71.26-1.78-1.04-3.02-1.49-4.14ZM16.26,8.99s-.03.07-.05.11c-.03.07-.07.14-.1.21,0,0,0,0,0,0-.04.07-.07.14-.11.21,0,.02-.02.03-.03.05-.02.03-.03.06-.05.09-.02.03-.03.06-.05.09h0c-.09.16-.19.33-.29.48l-.15.17-.08.1-.27-.45c.52-.78.77-.98,1.02-2.19.34-1.67.1-1.81.21-2.98.25.25.45.95.49,1.37.02.14.02.28.02.42,0,.04,0,.08,0,.12h0s0,.08,0,.11c0,0,0,.01,0,.01,0,.03,0,.06,0,.1,0,.05,0,.09-.01.14,0,.04,0,.07-.01.11,0,.02,0,.05-.01.07,0,.01,0,.03,0,.04,0,.01,0,.03,0,.04,0,.03,0,.06-.02.09,0,.04-.01.08-.02.12,0,.04-.02.08-.03.12,0,.04-.02.08-.03.12-.02.08-.04.16-.06.23-.01.04-.02.08-.04.12-.01.04-.02.08-.04.12-.01.03-.02.07-.04.1-.02.04-.03.09-.05.13-.03.08-.06.15-.09.23-.02.04-.03.07-.05.11-.02.04-.03.07-.05.11Z"/>
      <path class="cls-1" d="M9.1,10.33h0c.1,0,.24,0,.39,0,.24,0,.51,0,.78,0,.22,0,.43.02.62.05.19.03.37.06.51.11.15.05.27.13.37.21.1.09.17.19.22.3.05.11.09.24.11.36.02.12.02.25,0,.36-.02.12-.07.22-.14.32-.59.61-2.07.93-2.63.12-.32-.39-.33-1.3-.02-1.59-.26.02-.56.06-.76.14-.22-.34.61-.61.75-.69,0,.21-.03.19-.21.3h0ZM9.39,10.58c-.02.06-.05.16-.05.16-.02.09-.04.23-.04.41,0,.12.01.26.04.4.35,1.63,2.37.93,2.52.14.02-.09.02-.18,0-.28-.02-.1-.05-.2-.09-.29-.04-.09-.1-.16-.17-.23-.07-.07-.17-.12-.29-.16-.13-.05-.28-.08-.46-.1-.18-.02-.38-.04-.59-.04-.26,0-.53,0-.77,0-.03,0-.07,0-.1,0Z"/>
      <path class="cls-7" d="M13.49,9.77s-.07-.04-.1-.06c-.07-.04-.14-.07-.21-.1-.09-.04-.18-.08-.27-.11-.02,0-.04-.01-.05-.02-.03-.01-.07-.02-.1-.03-.02,0-.04-.01-.06-.01-.02,0-.04,0-.05-.01,0,0,0,0,0,0-.01,0-.03,0-.04,0-.26-.04-.54-.05-.82-.04-1.58.05-3.43.73-4.86,1.04-.71.19-1.42.23-2.09.4-.64.17-1.22.59-1.3,1.3,0,.07-.01.15,0,.21-.01.03-.03.07-.06.11-.06.11-.14.25-.14.33,0,.06,0,.12.01.18,0,.02,0,.03.01.05-.03.01-.06.03-.09.04h0s-.06.03-.1.06c-.04.02-.07.06-.11.1-.04.04-.09.1-.13.17-.04.06-.07.13-.1.2-.04.08-.07.18-.09.28-.02.1-.04.2-.04.3,0,.11,0,.22.01.33.01.11.04.21.07.31.04.1.09.2.16.28.06.08.14.14.24.19.08.04.18.07.27.09.11.02.22.03.32.02.08,0,.15-.01.21-.03.05-.01.08-.02.12-.04.02.03.04.06.06.09.1.25.21.45.3.62h0c.05.11.09.18.13.26.03.07.06.14.09.21.02.07.04.16.06.24.01.08.02.15.02.22,0,.03,0,.06,0,.09-.75-.23-1.13.75-.86,1.16.36.54,1.72.26,2.66.19.16,0,.45-.02.58-.02,1.71,1.17,1.91-.36,2.29-1.25.3-.53.5-.82.97-1.24.33-.29.68-.54,1.06-.75.04-.02.08-.05.13-.07.05-.03.1-.05.15-.08.05-.03.1-.05.15-.07.05-.02.09-.04.14-.06,0,0,0,0,.01,0,.1-.05.2-.09.31-.13,0,0,0,0,0,0,.05-.02.1-.04.15-.06.11-.04.23-.08.34-.12.05-.02.1-.03.15-.05,0,0,0,0,.01,0,.1-.03.21-.07.31-.1.06-.02.13-.04.2-.06.05-.01.09-.03.14-.04.06-.02.11-.03.17-.04.03,0,.07-.02.1-.02.04,0,.07-.02.11-.03.04-.01.09-.02.13-.03.06-.01.11-.02.16-.03.3-.06.44-.09.58-.48.08-.23.16-.59.19-.98.11-1.3-.45-2.22-1.59-2.88ZM3.62,12.67s.05.09.08.13c.03.04.05.07.08.1.03.03.05.07.07.09-.04,0-.08,0-.11-.01-.04,0-.07-.01-.09-.02h0s-.02-.01-.03-.02c-.01-.01-.02-.03-.03-.06,0-.03-.01-.07,0-.1,0-.02.02-.06.05-.11ZM4.63,16.04c-.07-.12-.13-.24-.18-.36,1.08.71,3.34.06,4.1-1,.09.27.13.52.13.74,0,.04,0,.08,0,.12,0,.03,0,.07,0,.1,0,0,0,.02,0,.02,0,.01,0,.03,0,.04,0,.01,0,.03,0,.04,0,.01,0,.03,0,.04,0,.02-.01.05-.02.07,0,.02-.01.05-.02.07,0,0,0,0,0,0-.02.06-.04.12-.07.18,0,.02-.02.04-.03.06,0,0,0,0,0,.01-.01.02-.02.04-.04.06-.03.05-.06.09-.09.13-.01.01-.02.03-.03.04-.01.01-.02.03-.04.04-.01.01-.02.02-.03.04-.01.01-.02.02-.03.03-.02.02-.03.03-.05.04,0,0-.02.02-.03.02-.01.01-.03.03-.05.04,0,0-.02.02-.03.02-.01,0-.02.02-.03.03-.02.01-.04.03-.06.04,0,0-.01.01-.02.01-.02.01-.04.03-.06.04-.02.01-.04.03-.07.04-.03.02-.06.03-.09.05-.03.01-.05.03-.08.04-.03.01-.06.03-.08.04s-.06.02-.08.03c0,0,0,0,0,0-.02,0-.05.02-.07.03-.02,0-.04.02-.06.02,0,0-.01,0-.02,0-.01,0-.02,0-.04.01-.09.03-.18.05-.27.07-.02,0-.03,0-.05.01-.02,0-.03,0-.05,0-.03,0-.06.01-.09.02-.02,0-.04,0-.06,0-.04,0-.08.01-.11.02-.04,0-.08.01-.12.01-.03,0-.07,0-.1,0-.03,0-.07,0-.1,0-.03,0-.06,0-.1,0-.26,0-.51-.01-.76-.05-.02,0-.04,0-.05,0-.16-.03-.32-.06-.47-.11,0-.03,0-.07,0-.1,0-.35-.19-.6-.35-.9ZM14.25,13.54c-.45.32-1.08.44-1.85.78-.2.09-.4.18-.6.28-.12.06-.23.12-.35.19-.5.28-.98.62-1.37,1.01.11-.66-.4.38-.53.59-.19.3-.41.58-.57.95-.17.39-.32,1.01-.75,1.14-.01,0-.03,0-.04.01-.09.02-.18.03-.28.02-.1,0-.2-.01-.29-.03-.08-.02-.16-.04-.22-.06-.03-.01-.06-.03-.08-.05.1,0,.41,0,.47.01-.29-.25-1.05-.23-1.13-.23-.54,0-1.6.12-2.07.02-.45-.09-.65-.54-.38-.9.04-.05.09-.09.14-.12.06-.03.12-.05.19-.06.06-.01.13-.01.18,0,0,.06-.01.08-.02.12-.09.37.21.32.4.24,0-.04-.19-.08-.18-.14v-.02c2.01.57,4.34-.15,3.69-2.71.01-.02.03-.04.04-.06-.63.41-.96.87-2.57,1.11-1.75.26-2.13-1.36-2.21-1.49-.03.25-.03.46,0,.65-.28.2-.68.37-.87-.07-.03-.08-.05-.17-.06-.26-.01-.1-.02-.19-.01-.29,0-.09.02-.18.04-.26.17-.49.52-.61.78-.65.26-.04.5,0,.76-.02-.46-.57-.59-1.02-.41-1.37.27-.53,1.31-.8,2.26-1.03.91-.22,1.72-.53,2.63-.76.21-.05.43-.11.67-.16h0c.23-.06.48-.12.74-.17.55-.11,1.1-.18,1.61-.16.05,0,.09,0,.14,0,.01,0,.02,0,.04,0,.03,0,.05,0,.08,0,.03,0,.05,0,.08,0,.05,0,.11.01.16.02.03,0,.06,0,.09.01.03,0,.06.01.09.02.04,0,.07.02.11.02.02,0,.04,0,.06.01,0,0,0,0,0,0,0,0,0,0,0,0,.03,0,.05.01.08.02.02,0,.04.01.06.02.02,0,.04.01.06.02,0,0,0,0,0,0,.04.01.07.03.11.04.02,0,.04.01.05.02.01,0,.03.01.04.02,0,0,0,0,0,0,.02,0,.03.01.05.02.02,0,.03.01.05.02.02,0,.04.02.06.03.02,0,.03.02.05.02,0,0,0,0,0,0,.02,0,.04.02.05.03.03.02.06.03.08.05.02.01.05.03.07.04.02.01.04.02.05.04.01.01.03.02.04.03.01.01.03.02.04.03.02.01.03.02.05.04.03.02.05.04.08.07.02.02.04.04.06.06.81.78,1.28,2.45.22,3.22Z"/>
    </g>
  </g>
</svg>