<?xml version="1.0" encoding="UTF-8"?>
<svg id="Layer_1" data-name="Layer 1" xmlns="http://www.w3.org/2000/svg" viewBox="0 0 24 24">
  <defs>
    <style>
      .cls-1 {
        fill: #ed9230;
      }
    </style>
  </defs>
  <g id="tight-bounds">
    <g>
      <g>
        <polygon class="cls-1" points="14.44 7.45 14.64 6.41 13.9 7.46 13.2 10.89 9.06 10.89 8.39 11.55 8.77 11.78 8.71 15.51 9.23 17.59 9.65 17.59 9.65 15.47 10.78 14.12 12.51 14.12 12.51 15.47 13.37 17.59 13.9 17.59 13.66 15.51 14.87 12.48 14.87 8.28 15.61 8.28 15.61 7.95 14.44 7.45"/>
        <polygon class="cls-1" points="10.06 16.06 10.46 17.59 10.96 17.59 10.65 15.26 10.06 16.06"/>
      </g>
      <path class="cls-1" d="M3.02,7.86l-.53,1.54-2.28-.78.08-.22,2.08.72.45-1.31.2.07ZM5.31,4.91h0c-.12.12-.26.2-.4.24-.15.05-.3.06-.45.05-.15-.02-.3-.06-.44-.12-.14-.07-.26-.16-.37-.27h0c-.11-.12-.2-.25-.26-.39-.06-.14-.09-.29-.1-.45,0-.15.02-.3.07-.45.05-.14.14-.27.25-.38h0c.12-.12.26-.2.41-.24.15-.04.3-.06.45-.04.15.02.3.06.44.13.14.07.26.16.37.26h0c.11.12.2.25.26.39.06.14.09.29.1.45,0,.15-.02.3-.07.44-.05.14-.14.27-.25.38h0ZM3.83,4.64h0c.09.09.19.17.31.23s.23.09.35.11c.12.01.24,0,.36-.03.12-.04.22-.1.32-.19h0c.1-.1.17-.2.21-.32.04-.12.05-.24.04-.36-.01-.12-.04-.24-.1-.36-.05-.11-.12-.22-.21-.31h0c-.09-.09-.19-.17-.31-.23-.11-.06-.23-.09-.36-.1-.12-.01-.24,0-.36.03-.12.04-.22.1-.32.19h0c-.1.09-.17.2-.21.32-.04.12-.05.24-.05.36.01.12.04.24.09.36s.12.22.21.31ZM9.69,2.54h0c-.16.04-.31.05-.46.02-.15-.03-.29-.09-.42-.18-.13-.09-.24-.19-.33-.32-.09-.13-.16-.26-.2-.41h0c-.04-.16-.06-.31-.04-.47.02-.16.06-.3.12-.44.07-.13.16-.25.27-.35.11-.1.25-.17.4-.21h0c.23-.06.43-.06.6,0,.17.05.31.15.43.28h0l-.15.17c-.11-.12-.24-.2-.38-.24s-.29-.03-.44.01h0c-.13.03-.24.09-.33.17-.09.08-.16.18-.21.29-.05.11-.08.23-.09.36,0,.13,0,.25.04.38h0c.04.13.09.25.17.35.07.11.16.19.27.26.11.07.22.12.34.14.12.02.24.02.36-.02h0c.14-.04.27-.11.37-.21.11-.1.2-.25.27-.43h0l.06.24c-.15.33-.37.53-.68.61h0ZM10.43,2.33l-.26-.97-.52.14-.05-.18.71-.19.31,1.14-.19.05ZM14.55,2.59h0c-.16-.04-.29-.11-.41-.21-.12-.1-.21-.22-.28-.36-.07-.14-.12-.28-.14-.44-.02-.15-.01-.31.02-.45h0c.04-.16.1-.3.19-.43.09-.13.19-.24.32-.32.12-.09.26-.15.41-.18.15-.03.3-.03.45,0h0c.23.06.41.15.53.28.12.13.2.28.24.45h0l-.21.08c-.04-.16-.11-.29-.22-.39-.11-.1-.24-.17-.39-.2h0c-.13-.03-.25-.03-.37,0-.12.03-.22.08-.32.16-.1.07-.18.16-.24.27-.07.11-.11.22-.14.35h0c-.03.13-.04.26-.02.39.02.13.05.25.11.36.06.11.14.21.23.28.09.08.2.13.33.16h0c.14.03.29.03.43,0,.14-.04.29-.12.44-.24h0l-.06.24c-.29.21-.58.29-.88.21h0ZM15.31,2.75l.23-.97-.52-.13.04-.18.72.17-.28,1.15-.19-.05ZM18.44,4.3l1.05.9-.14.16-1.22-1.06,1.57-1.82,1.2,1.04-.14.16-1.02-.88-.57.66.89.77-.13.15-.89-.77-.6.7ZM21.07,8.07l-.09-.22,2.23-.91.38.94c.04.1.06.19.05.29,0,.1-.03.19-.08.28-.04.09-.1.16-.17.23-.07.07-.15.12-.23.15h0c-.11.04-.22.06-.33.06-.11,0-.21-.03-.31-.08-.1-.05-.17-.12-.24-.21h0l-.64.9-.1-.25.61-.86-.27-.66-.82.34ZM23.11,7.24l-1.02.42.3.73c.04.09.09.15.17.2.07.04.16.07.25.07s.18-.01.27-.05h0c.09-.04.16-.09.22-.16.06-.07.1-.15.12-.24.02-.09.01-.17-.02-.26h0l-.29-.71ZM1.35,17.15l-.53-1.55,2.29-.79.08.23-2.09.72.46,1.32-.2.07ZM4.07,20.82h0c-.12-.12-.21-.25-.26-.39-.05-.15-.08-.29-.07-.45s.04-.3.11-.45.15-.27.25-.38h0c.11-.12.24-.21.38-.28.14-.07.29-.11.45-.12.15-.01.31,0,.45.05.15.05.28.13.4.24h0c.12.12.21.25.26.4.05.15.07.3.06.45-.01.15-.05.3-.11.45-.06.14-.14.27-.25.38h0c-.11.12-.24.21-.38.28-.14.07-.29.11-.44.12-.15.01-.3,0-.45-.05-.15-.05-.28-.13-.39-.24h0ZM4.27,19.31h0c-.09.1-.16.2-.22.32-.05.12-.08.24-.09.36,0,.12,0,.24.05.36.04.12.11.22.2.31h0c.1.1.21.16.33.2.12.03.24.04.37.03.12-.02.24-.05.35-.11.11-.06.21-.13.3-.22h0c.09-.1.16-.2.22-.32.05-.12.08-.24.09-.36,0-.13,0-.24-.05-.36-.04-.12-.11-.22-.2-.31h0c-.1-.09-.21-.16-.33-.19-.12-.03-.24-.04-.36-.03-.12.02-.24.05-.36.11-.11.06-.21.13-.3.22h0ZM9.22,23.62h0c-.16-.04-.29-.11-.41-.22-.12-.1-.21-.22-.28-.37-.07-.14-.11-.29-.13-.44-.02-.16,0-.31.04-.46h0c.04-.16.11-.3.2-.43.09-.13.2-.23.33-.32.13-.08.26-.14.41-.17.15-.03.3-.02.46.02h0c.23.06.41.16.53.29.12.13.2.29.23.46h0l-.21.07c-.04-.17-.11-.3-.21-.4-.11-.1-.24-.17-.39-.21h0c-.13-.03-.25-.04-.37-.01-.12.03-.23.08-.33.15-.1.07-.18.16-.25.27-.07.11-.12.22-.15.35h0c-.04.13-.05.26-.03.39.01.13.05.25.1.36s.13.21.22.29c.09.08.2.14.32.17h0c.14.04.29.04.43,0,.15-.04.3-.12.46-.23h0l-.07.24c-.29.21-.59.27-.9.19h0ZM9.98,23.81l.26-.97-.52-.14.05-.18.72.19-.31,1.15-.19-.05ZM14.97,23.59h0c-.16.04-.31.04-.46,0s-.29-.1-.42-.19c-.13-.09-.23-.2-.32-.33-.09-.13-.15-.27-.19-.42h0c-.04-.16-.05-.32-.03-.47s.07-.3.14-.43c.07-.13.17-.25.28-.35.12-.1.26-.16.41-.2h0c.23-.06.43-.05.6,0,.17.06.31.16.42.29h0l-.15.16c-.11-.13-.24-.21-.38-.25-.14-.04-.29-.04-.45,0h0c-.13.03-.24.09-.33.17-.09.08-.16.18-.22.29-.05.11-.08.23-.1.36-.01.13,0,.25.03.38h0c.03.13.08.25.16.36.07.11.16.2.27.27.1.07.22.12.34.15.12.03.24.02.37,0h0c.14-.03.27-.1.38-.21.11-.1.21-.24.29-.42h0l.06.25c-.16.32-.39.52-.7.6h0ZM15.73,23.39l-.24-.98-.52.13-.04-.18.72-.17.28,1.16-.2.05ZM19.31,21.15l1.05-.91.14.16-1.23,1.06-1.58-1.84,1.21-1.04.14.16-1.03.89.57.66.9-.77.13.15-.9.77.6.7ZM22.71,17.03l-.09.22-2.24-.92.39-.95c.04-.1.1-.18.17-.24.07-.06.16-.11.25-.14.09-.03.19-.05.28-.05.1,0,.19.02.27.06h0c.11.04.2.11.28.19.08.08.13.17.17.27.03.1.04.21.02.32h0l1.09-.2-.1.25-1.04.19-.27.66.83.34ZM20.66,16.19l1.02.42.3-.73c.04-.09.04-.18.02-.26-.02-.09-.07-.16-.13-.23-.06-.07-.14-.12-.23-.16h0c-.09-.04-.18-.05-.28-.04-.09,0-.18.04-.25.09-.08.05-.13.12-.17.2h0l-.29.71ZM.27,12.21c0-.51.41-.93.93-.93s.93.41.93.93-.41.93-.93.93-.93-.41-.93-.93ZM21.94,12.21c0-.51.41-.93.93-.93s.93.41.93.93-.41.93-.93.93-.93-.41-.93-.93Z"/>
    </g>
  </g>
</svg>